<?xml version="1.0" encoding="UTF-8"?>
<!DOCTYPE svg PUBLIC "-//W3C//DTD SVG 1.1//EN" "http://www.w3.org/Graphics/SVG/1.1/DTD/svg11.dtd">
<!-- Creator: CorelDRAW 2019 (64-Bit) -->
<svg xmlns="http://www.w3.org/2000/svg" xml:space="preserve" width="101.6mm" height="101.6mm" version="1.1" style="shape-rendering:geometricPrecision; text-rendering:geometricPrecision; image-rendering:optimizeQuality; fill-rule:evenodd; clip-rule:evenodd"
viewBox="0 0 10160 10160"
 xmlns:xlink="http://www.w3.org/1999/xlink">
 <defs>
  <style type="text/css">
   <![CDATA[
    .fil0 {fill:#004BDB}
   ]]>
  </style>
 </defs>
 <g id="Capa_x0020_1">
  <metadata id="CorelCorpID_0Corel-Layer"/>
  <g id="_2133371181424">
   <path class="fil0" d="M2683.88 4864.2c-40.55,17.54 -438.67,8.27 -479.2,37.54 2.23,5.95 1329.11,715.89 1595.9,849.29 45.16,22.58 489.71,257.55 528.21,287.83 -25.89,42.99 -156.66,230.18 -163.31,254.61 25.58,33.96 662.68,495.45 753.05,561.92 37.59,27.65 83.69,75.28 120.33,98.83 22.82,14.67 44.11,26.86 66.37,43.22 25.79,18.95 37.47,45.25 68,45.53 12.13,-5.58 44.04,-39.2 59.6,-51.09l190.46 -138.29c107.98,-83.32 753.85,-537.78 757.68,-561.55 -4.01,-52.97 -153.48,-200.94 -155.18,-256.99 26.32,-31.12 457.18,-243.41 529.01,-281.03 175.84,-92.11 351.15,-193.17 528.84,-282.06 221.88,-110.99 444.96,-232.55 666.13,-346.4l267.5 -135.76c22.77,-11.39 43.75,-23.98 65.67,-35.15 24.46,-12.45 53.15,-17.89 62.91,-42.29l-368.25 -30.62c-22.91,0.08 -99.93,-9.2 -118.29,-17.59 39.21,-56.43 98.43,-110.3 147.96,-158.87 159.95,-156.84 306.67,-309.35 457.15,-476.48 195.07,-216.65 384.01,-449.36 555.27,-685.19 88.08,-121.3 167.57,-243.36 249.24,-368.81 20.35,-31.27 37.77,-64.32 57.6,-95.9 12.88,-20.49 52.06,-83.47 -8.32,-56.74 -63.72,28.21 -144.37,74.56 -207.59,108.3 -269.75,143.94 -542.92,285.5 -814.61,425.85 -135.29,69.9 -270.03,143.81 -406,212.04 -275.44,138.22 -541.46,285.09 -813.09,427.38 -136.24,71.37 -274.44,139.26 -409.63,212.79 -65.65,35.7 -135.07,70.61 -201.63,105.2 -90.12,46.82 -109.63,56.2 -179.94,131.27 -100.36,107.13 -201.76,212.84 -301.96,320.46 -104.25,111.97 -499.1,551.33 -600.99,643.85 -45.08,-39.09 -368.58,-385.9 -400.91,-423.14 -131.38,-151.35 -273.58,-283.55 -402.1,-426.33 -46.47,-51.62 -149.98,-181.03 -204.97,-207.06 -43.57,-20.61 -90.82,-48.79 -133.06,-72.95 -118.32,-67.69 -280.49,-137.64 -411.53,-210.9 -90.36,-50.53 -179.81,-99.18 -273.84,-142.56 -41.89,-19.33 -94.21,-48.1 -135.79,-70.23 -313.81,-166.98 -640.03,-330.19 -947.19,-499.28 -178.47,-98.25 -366.46,-185.87 -545.97,-282.47 -114.01,-61.34 -448.1,-250.79 -550.94,-277.5 29.72,111.91 246.2,413.72 322.6,523.37 142.6,204.65 313.19,394.93 470.23,586.14 57.55,70.07 248.88,281.49 301.9,333.67 98.78,97.21 211.64,226.79 315.51,315.68 19.37,16.57 103.3,85.16 97.17,108.46z"/>
   <path class="fil0" d="M5164.86 5280.93c38.11,-11.89 106.67,-107.5 137.26,-139.63 45.63,-47.94 92.79,-94.51 138.26,-142.27l67.92 -72.35c20.23,-22.5 49.65,-51.46 66.34,-73.92 23.19,-31.21 122.44,-122.83 125.35,-155.18l-1065.13 0c2.15,23.96 127.86,161.02 156.7,189.58l100.82 109.59c57.69,57.69 226.4,249.21 272.48,284.18z"/>
  </g>
 </g>
</svg>
